<svg width="24" height="24" viewBox="0 0 24 24" fill="none" xmlns="http://www.w3.org/2000/svg">
<path fill-rule="evenodd" clip-rule="evenodd" d="M5.32128 8.49853L9.98965 12.6067L18.1819 2.25855C18.8675 1.39252 20.1254 1.24626 20.9914 1.93187C21.8575 2.61748 22.0037 3.87533 21.3181 4.74136L11.8181 16.7414C11.1072 17.6394 9.78865 17.7581 8.92877 17.0014L2.67877 11.5014C1.84955 10.7717 1.76889 9.50792 2.4986 8.6787C3.22831 7.84949 4.49207 7.76882 5.32128 8.49853ZM4.7202 18.9617L6.81538 16.4737L8.26814 17.7521C8.86427 18.2767 9.60735 18.5208 10.3395 18.4987L7.77985 21.5382C7.06836 22.3831 5.80665 22.4913 4.96175 21.7798C4.11686 21.0683 4.00871 19.8066 4.7202 18.9617ZM12.6022 17.3621C12.1499 17.9334 11.5337 18.2944 10.8755 18.4342L15.57 21.8647C16.4618 22.5165 17.7131 22.3218 18.3648 21.43C19.0165 20.5382 18.8219 19.2869 17.9301 18.6352L13.9163 15.7021L12.6022 17.3621ZM10 9.99996C10 9.99996 7.00003 7.99996 7.00003 5.99996C7.00003 3.99996 8.50003 2.99996 10 2.99996C11.5 2.99996 13 3.99996 13 5.99996C13 7.99996 10 9.99996 10 9.99996ZM11 5.99996C11 6.55224 10.5523 6.99996 10 6.99996C9.44774 6.99996 9.00003 6.55224 9.00003 5.99996C9.00003 5.44767 9.44774 4.99996 10 4.99996C10.5523 4.99996 11 5.44767 11 5.99996Z" fill="#FF6D6A"></path>
</svg>